<?xml version="1.0" encoding="UTF-8"?>
<svg xmlns="http://www.w3.org/2000/svg" version="1.1" viewBox="0 0 316 332.716">
  <!-- Generator: Adobe Illustrator 30.2.1, SVG Export Plug-In . SVG Version: 2.1.1 Build 1)  -->
  <g id="BADGE">
    <polyline points="0 0 316 0 295.0617 302.4691 161.1111 332.716 154.9383 332.716 20.3704 303.7037 0 0" fill="#0b375d"/>
  </g>
  <g id="TYPE">
    <g id="beOKnG">
      <g>
        <path d="M271.3473,245.7882l-3.4951-.2413c-.1743-.012-.6343.4408-.6313.6294l.0644,3.9966c.0112.697-.0687,2.5917,1.2093,2.7534,1.2017.152,4.4141.4978,4.9631-.8601l.4689-1.1596c-.0224-.0159.2788.1793.3289.2116l-.1831,2.4171c-.0284.3751-.819.8419-1.2346.8399l-12.1354-.0562-2.3973-.0313c-2.5017-.0327-5.0606-4.1164-6.4311-6.2043-.2256-.3436-.9822-.9464-1.3943-.936l-2.0061.0506.1168,4.7995c.0078.3219.1595,1.2134.3982,1.4296.2404.2178,1.0191.3423,1.6657.4791.0384-.1267-.1085.3553-.126.4223l-6.3795-.0245c-.1534-.0006-.6899-.2708-.5565-.3085l1.0727-.303c.9204-.26.8269-2.1834.8279-3.2671l.0102-11.3717c.0003-.2919-.1452-1.2131-.4243-1.2725l-1.5289-.3254c-.1219-.0259-.4999-.3708-.3748-.3877.1248-.0169.4711-.0676.6347-.0678l8.1284-.01c.8721-.0011,2.0415.329,2.7774.7339,1.8635,1.0254,2.5756,3.1718,1.6951,5.1166-.4972,1.0982-1.4541,2.0075-2.3349,2.8414l-.4438.4202c-.0949.0898.1676.4964.2732.6242l2.4528,2.9695c.9119,1.104,1.8644,2.0894,2.9351,3.1001,1.4798,1.397,4.6255,1.467,4.6861.0252l.0997-2.3724.0117-11.4409c.0003-.249-.154-1.0935-.3956-1.1803l-1.6571-.5953c-.1292.2358.0467-.0853.1222-.2233l8.5119-.032,3.0409-.0714-.4016,3.2873c-.5115.232-.3309-1.6654-1.7221-1.7546l-3.8155-.2447c-.1907-.0122-.5015.6335-.5027.832l-.0298,4.8c-.0015.2456.4424.7109.6806.7007l3.1233-.1343c1.7849-.0767,2.3301-1.1002,2.2384-.0619l-.2491,2.8185c-.0749.0658-.3446.3315-.3341.3211l-.398-1.0668c-.0785-.2103-.7078-.5978-.955-.6149ZM252.0407,245.9518c.5795-.6482,1.1505-1.1988,1.3828-1.7933.8986-2.299.0999-5.5484-2.4863-5.919-.6007-.0861-2.5422-.3838-2.4459.5138l.022,6.1055c.0011.2978.1363.7212.2315,1.0449l3.2958.0481Z" fill="#fff"/>
        <path d="M146.4417,240.9278c-.4636.7545-.815,1.3364-1.1947,2.1081l-5.127,10.4221c-.0869.1767-.4695.6743-.5908.7626-.157-.0581-.6715-.563-.7824-.7843l-4.5925-9.1606-1.5552-3.0241c-.0457.0747-.2164.466-.2391.6329l-1.366,10.0742c-.0479.3532-.0294,1.3764.2764,1.4852l1.7399.6187c.0527-.0585-.1533.1677-.2274.2565l-5.5513-.0174c-.1559-.0005-.4651-.3168-.3704-.3405,1.2338-.309,1.8618-.3344,2.0765-1.7307l2.7697-18.0165c.0389-.2532.6083-.7193.7065-.5616.2735.4392.7859,1.3161,1.0115,1.7747l5.6577,11.5023,1.1571,2.2725c.1515-.1961.3837-.4776.4554-.6251l7.0117-14.4235c.0931-.1916.471-.4715.6218-.5526.1506-.0811.3808.484.4174.7293l2.6084,17.4542c.4208,2.816,2.6313,1.4397,3.1903,2.553l-5.6459-.0143c-.2864-.0007-1.0161-.2113-1.2195-.2736.2017-.6042.478-1.4204.4057-1.927l-.9888-6.9185-.655-4.2757Z" fill="#fff"/>
        <path d="M183.3383,253.3776c-.1216.2473-.5208.9038-.6645.8284-.1675-.1145-.634-.5546-.7549-.7953l-4.2967-8.5491-1.7294-3.5615c.1129-.054-.1776.0878-.3043.1444l-1.4132,10.5275c-.047.3501-.0365,1.3421.2584,1.4524l1.7168.6423c.0576-.0623-.1565.1656-.2258.2515l-5.5674-.0161c-.1294-.0004-.4238-.3027-.3403-.3287l1.4814-.4615c.2676-.0834.5528-.8682.602-1.1885l2.5137-16.382c.095-.6194.3546-1.7438.4915-2.2341.047-.1683.7437.2027.8274.3725l7.3508,14.9122c.0598.1201.4733-.1728.5794-.3912l7.0811-14.5742c.0718-.1478.4634-.5264.5417-.4419.1189.1283.4007.4949.4317.7027l2.6112,17.4686c.4279,2.8629,2.6065,1.4462,3.167,2.6009l-6.6034-.0798c.1108-1.3031.1485-2.3509-.0285-3.585l-1.1766-8.205c-.0788-.5495-.1888-1.0477-.2941-1.5472-.2873.452-.5579.8578-.7645,1.2777l-5.4904,11.1598Z" fill="#fff"/>
        <path d="M273.4623,264.5422l-5.653.1855-15.8329.2772-7.8551.0789-7.2411.0689-11.7614.0725-12.0688.0694-13.2806.0428-4.5067.046-13.0128.0395c-.4783.0015-1.3209-.0303-1.6932-.1283-.1217-.0321-.7624-1.883.532-1.8789l8.4189.0265,9.9582.0504,13.584.055,12.0687.0696,11.4603.0702,7.5423.0694,7.5504.0787,13.5775.1798,4.8.1863,3.482.1269-.0688.2139Z" fill="#fff"/>
        <path d="M64.7717,265.0075l-15.9807-.2812-5.6808-.1882-.0031-.2303,5.9495-.2015,15.8668-.2727,7.5545-.0749,7.2412-.0687,12.0618-.0749,11.7688-.0682,13.5812-.0451,4.5063-.0493,12.3964-.035c.6396-.0018,1.4537.0305,2.0242.0909.4374.0464.4245,1.7829-.0017,1.8277-.5436.0572-1.384.0876-2.024.0858l-12.3964-.0355-4.8062-.0473-13.2802-.0435-11.7685-.0689-12.0617-.0744-7.2419-.0683-7.7056-.0765Z" fill="#fff"/>
        <path d="M218.5587,244.1407c.5173,5.4938-2.7922,9.6205-8.3808,10.3825-2.353.3208-4.6869.0472-6.7628-1.1034-3.6931-2.047-5.3425-6.3339-4.1331-10.3482,1.879-6.237,9.3336-7.7269,14.5706-5.4781,2.7391,1.1762,4.4302,3.6179,4.7061,6.5472ZM214.3285,250.2479c1.2707-3.2142,1.0564-7.5396-1.3455-10.2551-2.1038-2.3785-5.5791-2.9036-8.2372-1.0729-3.2065,2.2084-3.5742,10.6615,1.427,13.5492,2.7192,1.57,6.7998,1.2086,8.1557-2.2212Z" fill="#fff"/>
        <path d="M238.5028,251.7494c-2.8285,3.0352-8.5368,3.7208-12.2889,1.8713-3.7344-1.8408-5.5954-5.9425-4.6708-9.9767,1.5459-6.7455,9.5049-8.4073,14.8495-5.9952,1.6916.7634,3.1147,2.0895,3.8493,3.7778,1.5196,3.4921.8595,7.5342-1.7391,10.3227ZM236.8075,250.1072c1.2099-3.2764.9654-7.6502-1.5947-10.3129-2.1458-2.2318-5.5315-2.6574-8.0931-.837-3.2237,2.2908-3.5044,10.8181,1.6244,13.5981,2.7879,1.5111,6.7805,1.026,8.0634-2.4482Z" fill="#fff"/>
        <path d="M98.2243,251.7633c-2.4294,2.556-6.6862,3.3391-10.0531,2.6341-4.4441-.9307-7.4222-4.8468-7.1019-9.367.2577-3.6362,2.567-6.5735,5.9911-7.7463,5.0221-1.7201,12.2919-.2428,13.508,5.9683.6012,3.0704-.1647,6.218-2.3442,8.511ZM96.5388,250.1044c1.1904-3.2077.9685-7.4913-1.4493-10.1596-2.1346-2.3557-5.6091-2.8503-8.2432-.9847-3.1504,2.2312-3.5082,10.5402,1.4076,13.4742,2.7268,1.6275,6.943,1.2862,8.2849-2.3298Z" fill="#fff"/>
        <path d="M70.3786,247.2071l-1.6281-.1824c-.1642-.0184-.6249.4985-.6191.6721l.1535,4.547c.0105.3123.1903,1.2457.4887,1.3052l1.8867.3761c-.0729.1132-.6349.4073-.8732.4063l-6.035-.0256c-.1236-.0005-.5872-.2575-.465-.2954l1.0121-.3142c.2573-.0799.7759-.7022.7851-1.0077l.0769-2.5371.0134-11.1187c.0004-.3008-.1727-1.2282-.4604-1.2825l-1.5654-.295c-.1286-.0242-.4941-.3668-.3703-.3842.1234-.0174.486-.078.6233-.0778l8.3919.0138c1.5437.0025,3.1618.7688,4.0031,2.0058,1.0034,1.4753.8082,3.4302-.2931,4.8312-1.3926,1.7715-2.6083,2.0892-2.0772,2.724l3.1073,3.7137c1.3327,1.5927,2.8451,3.3168,4.9555,3.6068l.0863.4907-3.6554-.0957c-3.4711-.0908-5.9871-6.902-7.5418-7.0762ZM71.8355,245.8991c.6309-.7948,1.1135-1.307,1.3332-1.9549.736-2.1702.0583-5.3018-2.5904-5.7061-1.2348-.1885-2.3966-.4251-2.3964.8021l.0008,5.9259c0,.1937.3097.9745.4837.9723l3.1691-.0392Z" fill="#fff"/>
        <path d="M54.3923,253.614l1.7009.3902c-.0017.0061-.1489.287-.1553.2994l-7.3073-.0046c-.1319,0-.5707-.0077-.5885-.0162-.0179-.0086-.0721-.1895-.1235-.339l1.0394-.1989c1.2467-.2386,1.1012-2.8202,1.1037-4.1825l.0228-12.3611.0041-1.7982-5.2739.2029c-.6896.0265-1.5116.7874-1.7804,1.3541l-.2645.5576c-.0453.0956-.3812-.2973-.3646-.401l.4723-2.9505c.1589-.9926,1.9364-.1653,4.5327-.1696l9.3827-.0154c1.3355-.0022,2.5305-.1212,3.8729-.2226l-.0038,3.7307-.4138.0918c-.4717-1.7479-1.4866-2.0085-3.098-2.0776l-3.7229-.1597.0303,2.1785.0232,12.9499c.0015.8485-.07,2.9166.9115,3.1418Z" fill="#fff"/>
        <path d="M112.4077,245.4496c-.2999.4732-.6124,1.6905-.6103,2.2516l.0178,4.8115c.0015.4112.645,1.153,1.0293,1.2257l1.4342.2711-.1232.3008-6.9638-.0036c-.131,0-.547-.2467-.4377-.287l1.3772-.5202c.2097-.0792.4611-.7823.4624-1.0354l.0231-4.4452c.0041-.7968-.4625-2.0051-.8667-2.6292l-1.3224-2.042-2.8547-4.4135c-.4297-.6644-1.2983-1.141-2.2811-1.5974-.012.0726.0353-.2151.0575-.3504l5.5687-.0032.1215.3738c-.7569,1.08-.0482,1.5047.7617,2.8927l2.6534,4.5475c.1145.0672.5635.0835.683.0278l3.3409-5.8129c.3366-.5856.0876-1.3244-.4696-1.7668-.0075.0201.05-.1323.0965-.2511l4.9512-.0055-.0007.37c-1.1761.4013-2.1119.9329-2.6614,1.8001l-3.9869,6.291Z" fill="#fff"/>
        <path d="M273.2509,223.7989c.3882.0886.4839.1227.2183.1561l-6.4434.0633-3.1281.1728-13.7376.1891-9.9649.089-6.9322.0569-8.4927.0883c-.3445.0036-1.0276-.0842-1.2013-.2902-.1492-.1769-.1133-1.1022.1007-1.1909.1992-.0826.8708-.2121,1.1288-.2094l4.2381.0459,7.2455.0705,9.3484.0753,7.2214.0787,4.5401.0628,9.3625.1319c.9818.0138,1.9592.0411,2.9026.1178l3.5938.292Z" fill="#fff"/>
        <path d="M83.7832,224.5316l-7.3784-.0618-9.9659-.0902-13.7384-.1863-3.1221-.1877-6.1465-.0077c-.033-.1087-.096-.3164-.0665-.219l3.5777-.271c.9462-.0717,1.9164-.1039,2.9034-.118l10.8754-.155,6.6277-.0833,9.0457-.0785,6.9538-.0642,8.4486-.0853c.2442-.0025.9223.1447,1.1792.2247.2985.0929.297,1.3232-.013,1.3563-.4198.0448-1.0676.0961-1.4517.0928l-7.7288-.0659Z" fill="#fff"/>
        <path d="M129.8671,218.8359l-.2504-.5695,2.55.0539c-.4671.4684-1.0247,1.0298-1.2351,1.6607l-2.845,8.5323-.5639.1271-2.848-6.8599c-.0718-.1729-.2133-.4596-.2008-.417l-1.9689,4.9439-.9922,2.4182-.5981-.2824-2.7104-8.2328c-.2248-.6829-.6001-1.2119-.9706-1.7252-.4023-.1805-.3744-.168-.2552-.1143l3.3041-.1023-.0888.2925c-.2574.2396-.531.7-.4592.9306l1.1077,3.5618.7735,2.4875.3947-.0316,2.5617-6.9304.4996-.0322,2.857,6.9723.317-.0101.5759-1.8362,1.1052-3.5213c.0876-.2791.0185-1.0553-.0596-1.3156Z" fill="#fff"/>
        <path d="M207.1214,226.5914c-1.3095,1.9308-3.4064,2.4554-5.5023,2.2474-2.2371-.222-3.9697-1.5375-4.5463-3.7265-.8056-3.0586.8555-6.116,3.4571-6.6806,3.2155-.6978,6.62-.0616,7.4335,3.5045.3483,1.5269.0889,3.2827-.842,4.6553ZM204.5343,228.0646c1.8286-1.8134,1.912-4.2344,1.3574-6.2924-.4651-1.7259-1.9716-2.9762-3.7413-3.0368-1.4488-.0496-2.7675.986-3.1414,2.4039-.6821,2.5866-.1313,4.9659,2.0164,6.7436,1.196.2758,2.1352.3079,3.5089.1817Z" fill="#fff"/>
        <path d="M144.3014,228.8024c-2.9448.2451-5.6294-.0859-6.8606-2.7899-.6777-1.4885-.7224-3.2138-.1104-4.6992,1.1809-2.8667,4.0514-3.4263,6.8525-3.016,1.7503.2563,3.1284,1.4757,3.6644,3.1067.975,2.9672-.2917,6.028-3.5458,7.3984ZM144.518,228.0452c2.0122-1.7133,2.019-4.7257,1.2286-6.7549-.5772-1.4817-1.9909-2.5398-3.591-2.5561-1.6311-.0166-3.016,1.2691-3.2396,2.8992-.3177,2.3163.0129,4.8179,2.1523,6.1041.9818.5902,2.181.4634,3.4497.3078Z" fill="#fff"/>
        <path d="M118.1498,228.7545c.187-.0085-.0285.0012-.4559.021l-2.1296.019c-.2165.0019-.6738-.549-.7316-.7781l-.5257-2.0827c-.2801-1.1098-3.6867-1.1251-4.039-.0513l-.6019,1.8348c-.0818.2492.4491.8216.698.9846.0897-.0002-.2276.0001-.4674.0002l-7.5469.0032-1.7148.0002c.3529-.2839.8813-1.0736.8828-1.5862l.0208-7.4744c.0012-.4158-.4129-.7946-1.0457-1.3224-.3373.2801-.1836.1524.0278-.0232l3.644.058c.3021.0775.4188.1075-.127-.0327-.3866.4452-.8209.9764-.8192,1.3778l.0305,6.9997c.001.229.2553,1.0353.4783,1.1005,1.0131.2962,2.8831.4558,3.504-.7003.1473-.3823.1655-.4297.0834-.2159l.0506,1.4212c.0328.0511.5869.1986.6612.1004.1974-.2606.6525-.9194.7744-1.2209l3.5074-8.6809c.0567-.0743.5421-.0305.6889.0488l3.4601,8.55c.2669.6594.8088,1.0139,1.6924,1.6493ZM111.2123,224.5521l2.3864-.1012-1.2878-3.2826-1.2821,2.8094.1836.5744Z" fill="#fff"/>
        <path d="M175.19,225.1987c.8156,2.1857,2.7788,3.1238,4.9395,2.8911.8378-.0902,1.3996-.5878,2.0962-1.3097-.0147-.1159.0797.5989.1105.8537.1944,1.6087-3.607,1.2549-4.5333,1.1691-1.6708-.1548-3.2707-1.1398-4.1258-2.5068-1.0485-1.676-1.0593-3.8112-.1047-5.5313.7602-1.3698,2.2509-2.3766,3.9098-2.5034.7702-.0589,5.1018-.4539,4.9644.8806l-.1957,1.901-.3258-.6664c-.6382-1.7462-3.309-1.8121-4.9044-1.2916-2.0408.6658-2.6626,3.8843-1.8307,6.1137Z" fill="#fff"/>
        <path d="M187.16,226.9412c.0033.2866.477,1.0533.7451,1.054l1.7191.0044c.2695.0007.8592-.5296,1.0137-.7472l.402-.566c-.0652.6212-.1545,1.3716-.2309,1.8073-.0447.255-1.0088.2805-1.3326.2709l-4.5226-.1335c-.2851.0653-.509.1163-.4026.092.524-.4876.9127-1.1243.913-1.7485l.0026-7.1831c0-.2111-.0577-.8068-.2215-.8818l-1.1434-.5231c.0142-.0055.4003-.0528.5498-.0531l5.9782-.0142-.1677,1.3749c-.6391-.3914-3.2892-1.344-3.3059-.1643l-.0376,2.6517c-.0027.1929.4216.7207.6163.7009l2.6675-.271-.1416,1.4852c-.5874-.2752-1.8311-.6433-2.4986-.7523-.1436-.0209-.6371.5148-.6352.6775l.0332,2.9191Z" fill="#fff"/>
        <path d="M216.0211,222.6256l-.1389,1.2841-2.7033-.5754c-.1089-.0232-.4626.6131-.4607.7479l.0449,3.3365c.0053.3973.5984.9572,1.0564,1.2946.19-.0141-.1914.0142-.4427.0329l-3.2465-.0663c.3592-.2443.8925-1.0456.894-1.5629l.0219-7.4485c.0015-.5135-.6479-1.0193-1.2175-1.2822l.4866-.0473,6.0012-.0448.0681,1.2351c-.0721.2624-.1565.5692-.1175.429-.3975-.3233-.9815-.819-1.3179-.8453l-1.8385-.1441c-.0928-.0073-.3514.4364-.3539.534l-.0698,2.7146c-.0045.1751.484.6935.667.6752l2.667-.267Z" fill="#fff"/>
        <path d="M164.5246,223.8652l-2.7924-.5605c-.1193.2188-.3672.6514-.3656.7654l.0469,3.3533c.0066.4736.6431,1.0027,1.1473,1.2877.1522-.0106-.2161.0151-.4673.0326l-3.2675-.0546c.3288-.2863.8419-1.0901.8427-1.573l.0135-7.4368c.001-.5423-.557-1.0369-1.1267-1.2982l.469-.0561,6.0261.0048-.1701,1.1469-2.8022-.5408c-.1438-.0278-.6721.4091-.6766.5663l-.0782,2.7207c-.0055.1908.5166.713.7352.6886l2.5998-.2905-.1338,1.2443Z" fill="#fff"/>
        <path d="M155.6924,224.1317c-.1772-.1791-.6981-.6457-.9128-.6527l-1.7054-.0556c-.1005-.0033-.3102.4972-.3093.6277l.0229,3.3193c.004.5721.4529.9529,1.2251,1.2276.0425-.0038.0373.1061.0076.1898l-3.7913-.1542c-.2656.0929-.2113.0739.2917-.1021.1924-.2902.5487-1.0945.5499-1.5712l.0186-7.4649c.0007-.2781-.5084-.7926-.7676-.8964l-.6381-.2555,4.249-.0181,2.5233-.0104-.1708,1.7639c-.2764-.2548-.8186-.9023-1.1481-.9302l-2.0065-.1699c-.0956-.0081-.3335.469-.3361.5641l-.0724,2.6362c-.0054.195.4268.7255.6314.7057l2.6638-.258-.0204,1.891c.0106.0131-.0269-.0343-.3046-.386Z" fill="#fff"/>
        <path d="M167.7402,265.4267c.644,2.1243,2.4996,3.1479,4.5512,2.9346.7793-.081,1.4269-.6428,2.0285-1.2836-.0186-.0518.0617.1712.2093.5831-.2079,2.1759-4.3623,1.4625-5.6327,1.0155-1.8828-.6626-3.0377-2.2218-3.1689-4.1693-.2314-3.4352,2.3975-5.4005,5.4152-5.3243.8143.0206,3.3029-.0109,3.4091.7712l-.1852,1.9448-.3551-.6605c-.6435-1.3726-2.4854-1.5758-3.9989-1.3481-2.1362.3214-2.9648,3.2533-2.2726,5.5366Z" fill="#fff"/>
        <path d="M145.1244,259.9208l-.1645,1.3009.0327,5.4984c.0039.6618.1694,1.2813.3382,2.1473l-2.1851-.0326c.1335-.9121.2788-1.6305.2807-2.4079l.0108-4.3029c.0022-.8861-.1444-1.7107-.2786-2.706,1.8388.0171,6.1249-.71,5.9217,2.3888-.0914,1.3941-.9113,2.2819-2.1781,2.7408l-.753-.0833c.9151-.5693,1.4693-1.2645,1.4433-2.2415-.0386-1.4499-.8398-2.3852-2.468-2.3019Z" fill="#fff"/>
        <path d="M164.719,267.779l.0312.7736c.0097.2414-.5979.4869-.8738.4773l-3.6365-.1263c-.3086-.0107-.8262-.0795-1.0668-.1094.1216-.819.2724-1.6103.2745-2.3642l.012-4.3075c.0025-.8804-.1497-1.7203-.2875-2.6846l2.1495.0056c-.1333.7467-.2828,1.4136-.2862,2.1029l-.0263,5.3187c-.0015.3113.2783,1.1965.566,1.2864.8373.2619,2.2398.0113,3.144-.3726Z" fill="#fff"/>
        <path d="M171.3513,228.7389c.1307.0011-.2312-.0015-.4962-.0031l-3.4997-.0217c-.1138.1021-.0287.0254.2521-.2254.2332-.2088.67-.8718.671-1.2629l.0207-7.5037c.0014-.4956-.4834-.9889-.9796-1.3806-.1688.001.211-.0009.4599-.0027l2.787-.0208c.1281-.001.6268.0557.4443.0405-.5564.3262-1.0567.7855-1.0548,1.3326l.0262,7.5676c.0009.251.1189.8317.2784.9144l1.0907.5659Z" fill="#fff"/>
        <path d="M154.2561,268.3048l2.6382-.3137.122.6174c.0389.1967-.5169.4207-.7343.4131l-4.7358-.165c.0944-.9916.1965-1.83.2054-2.7535l.0443-4.5774c.0041-.4233-.2489-1.318-.3779-1.7086l.015-.4751,2.1212.11c-.0855.8114-.1985,1.5761-.2018,2.4019l-.0219,5.4123c-.0012.3038.6123,1.0757.9255,1.0385Z" fill="#fff"/>
        <ellipse cx="157.9118" cy="252.6009" rx="1.638" ry="1.6319" fill="#fff"/>
      </g>
    </g>
  </g>
  <g id="MARK">
    <path d="M105.3107,218.3216h-1.9937c-.8412-.0535-1.0352-.4558-.8061-.6444.5375-.4426,1.0815-.3916,1.3831-.4146.7316-.0558,1.5997.3239,1.4167,1.0591Z" fill="#ccaf6e"/>
    <path d="M159.2438,197.4095c-29.5096-8.3527-52.5522-29.3704-64.1852-57.4541l-.1372-73.4584c42.1108-11.4441,85.3467-11.6006,127.6814.0119l.0766,72.9038c-11.3857,28.064-33.556,48.8461-63.4356,57.9969ZM159.2944,192.7959c27.5795-8.8877,48.2091-28.3722,58.9485-54.22l-.158-68.742c-39.3646-10.1218-79.5274-10.0276-118.7126.042l.1065,69.1919c11.0312,26.1797,32.3254,45.6334,59.8156,53.7281Z" fill="#fdfdfd"/>
    <path d="M194.1073,162.0189c-.0089,3.9602-4.3474,6.4193-6.908,7.8748l-.4166-74.1504c-.012-2.1348-6.9064-1.9823-8.4811-1.6993l-.2265,81.2607c-.0085,3.0544-4.6115,4.4886-7.0286,4.8756l-.0733-94.3989c14.0495,1.2567,27.2029,3.1906,40.633,7.0623l-.0069,44.4338c-1.6448,4.9401-3.6683,9.4044-7.0308,13.0981l-.2864-51.4312c-3.2344-2.1411-6.668-2.463-10.0277-2.241l-.147,65.3154Z" fill="#fdfdfd"/>
    <path d="M130.1115,169.0966c-2.5796-.4427-6.7501-3.3811-6.7642-6.7138l-.2772-65.7057c-1.7026.0298-9.2541.0012-9.2925,2.4195l-.8184,51.5867c-2.304-3.9336-6.2675-8.3374-6.544-13.2967-.8292-14.8749-.2313-29.3659-.2489-44.5313,13.5745-4.0178,26.358-5.7671,40.4236-7.0485l-.0842,94.4813c-2.6067-.5686-6.9764-2.1426-6.9824-5.0582l-.1661-80.87c-1.0543-.7605-8.7399-.8012-8.755,1.4642l-.4907,73.2725Z" fill="#fdfdfd"/>
    <path d="M162.3444,182.75c.0045,2.509-2.5711,2.6184-3.547,2.6617s-3.5992-.2344-3.5986-2.1166l.0351-106.7206c-15.799.2091-32.9977,3.0821-47.9534,6.6938-2.0636-.8482-1.6758-5.9132.1504-7.3077,34.0494-8.704,69.2303-8.7209,103.1275.0709,1.6604,2.4478,1.6378,5.1321.4671,7.7807-16.0988-4.9001-32.3513-6.5871-48.8735-7.2965l.1923,106.2343Z" fill="#ccaf6e"/>
  </g>
</svg>