<?xml version="1.0" encoding="UTF-8"?>
<svg id="Layer_1" xmlns="http://www.w3.org/2000/svg" version="1.1" viewBox="0 0 1028.5253 475.4198">
  <!-- Generator: Adobe Illustrator 30.2.1, SVG Export Plug-In . SVG Version: 2.1.1 Build 1)  -->
  <path d="M179.3379,327.8717l-18.6683,17.6896c-4.7338,4.4856-10.1138,7.5692-15.1192,11.7769l-15.7969,13.2794c-17.0456,14.3292-32.8259,28.8062-48.3167,44.7523-10.6995,11.014-21.563,21.8785-26.264,36.8384-1.3091,4.166-1.008,8.8298,1.8679,11.5458,3.3945,3.2057,7.8833,2.4278,12.1643.5904,9.1463-3.9255,17.6369-7.3595,25.484-13.9234,42.6006-35.634,80.1899-75.5285,114.9611-118.7599,8.9099-11.0778,47.9631-59.9503,31.5256-72.2094-4.7308-3.5282-17.8933,3.0356-22.0988,5.6021l-19.851,12.1144c-5.5847,3.4082-11.9468,6.517-17.8234,1.4908-7.7759-6.6507-12.1129.9932-18.9117-3.0767-2.1568-1.2911-3.6091-4.6954-4.4434-7.4443l-.8393-2.7656c-.2135-.7035-2.457-.3875-3.1213,0l-39.6366,23.1183c-3.2364,1.8877-8.9291-1.4433-10.7923-3.6354-4.9057-5.7716,4.0791-14.0353,5.1038-19.8346-4.8921-.1005-6.9631,2.4033-9.4697,5.2355-8.6259,9.7465-16.9685,18.6485-26.7458,27.7621l-13.392-1.413c-4.0461,7.0716-9.1227,12.2002-14.5405,17.8756-9.4496,9.899-24.9023,30.9879-39.4509,19.8527-5.4545-4.1748-6.7468-11.9578-3.1111-18.8711,9.1432-17.3856,22.6666-31.8049,36.1957-46.2272,8.2265-8.7696,15.9488-17.2843,25.0605-24.8229,11.7093-9.6877,19.4248-.2708,23.2257-6.8274,4.7808-8.247,9.7011-15.2671,15.6619-22.4573,6.0539-7.3025,10.2167-15.0889,14.9098-23.2787,3.5955-6.2745,9.2177-11.2973,11.3253-18.5026-6.0919-.9255-9.4559,3.3987-13.638,6.2842l-20.8023,14.3527c-2.7538,1.9-7.1103.9586-8.7483-1.4942-1.6542-2.477-1.3772-6.4894,1.9296-8.6669,28.5853-18.8235,56.9139-39.6662,78.5611-67.1312,14.271-18.1065,24.8353-38.3377,37.7378-57.5324l19.1478-28.4859c3.3341-4.96,7.9483-6.4341,12.2283-4.0886,6.5047,3.5647,3.7816,7.6425,1.932,13.1077-10.1408,29.9651-27.5902,55.4703-50.8175,77.2041-13.0974,12.2552-22.9592,25.7558-32.3959,40.8114l-10.3566,16.5234c-5.6705,9.047-12.3782,16.9462-17.2789,26.5814-2.9538,5.8074-7.4512,10.2775-11.9037,15.1678-2.7143,2.9811-3.2348,8.1842-5.3027,11.5647-3.4186,5.5887-6.4187,10.6216-10.3267,16.0936.2511-.3516-21.855,28.4404-13.7487,24.8341.5496-.2445,2.1323-.8729,2.7143-1.3438l26.9668-21.8223c3.6286-2.9363,11.2661-13.6302,18.2309-9.0672,8.944,5.8596-6.5781,22.4648-6.6072,30.678,16.4047-6.6659,29.6182-16.2449,43.9885-25.0592,3.0523-1.8722,8.9617-3.0133,11.1452.239,3.1288,4.6604.2057,9.6968-.6492,15.2792,5.8063,2.2572,9.4497-7.1148,17.8915,2.1455,6.848,7.512,20.4327-13.1352,40.8263-12.7536,12.5559.235,19.9874,11.9644,18.7562,24.1121-1.8923,18.6709-12.644,33.5778-23.6172,48.1171-11.3131,14.9898-16.9346,20.8275-27.9847,35.1963-13.731,17.8549-79.1028,84.7742-96.2748,97.6093l-20.6672,15.4476c-7.5333,5.6307-18.0119,6.9149-27.1811,8.0363-8.0487.9844-14.3638-3.6271-18.394-9.5301-13.0145-19.0622,31.7653-60.4423,45.5716-73.3755,9.6705-9.059,18.8952-17.6632,29.0935-25.9173l18.8299-15.2402,28.0201-22.9147,27.0029-23.0375c5.0773-4.3317,21.6146-19.2977,26.1965-15.0563.8929.8266-.4565,3.6444-1.4407,4.5417l-22.6155,20.6184c-4.9214,4.4868-9.9375,7.5924-15.1127,12.4963ZM57.7283,278.5755l14.3888-18.8645c.9074-1.1896.8348-4.0971.2825-5.1861-3.2994-6.5055-27.2325,20.6369-31.0207,24.5808-6.957,7.2429-11.9889,14.3304-17.8854,22.5697-3.9234,5.4823-10.7144,12.7173-9.5872,20.0721,1.767,11.5291,41.9586-40.729,43.822-43.1721Z"/>
  <path d="M1028.483,296.3705c-.9506,3.5331-7.9546,3.8934-11.2659,3.8196-15.5918-.3475-29.7134-5.4063-43.8583-11.0883l-30.6554-12.3143c-12.2522-4.9217-24.4084-9.927-37.308-12.6231l-38.2272-7.9898c-16.4848-3.4455-33.0127-2.7756-49.9417-2.1026-38.4951,1.5304-57.3707,19.0704-90.9746,22.102-24.2527,2.188-25.9212-24.4944-38.7374-21.7264-14.9903,3.2376-26.929,12.3847-40.7363,18.0467l-20.0492,8.2216c-3.6128,1.4815-8.5293.1701-10.8389-2.6172-6.6038-7.9699,4.597-15.7537,2.5711-27.5195-.5238-3.0422-6.8239-2.8684-9.3219-1.8028l-30.4162,12.9755-15.0675-1.2175c-4.3523-.3517-25.9722,16.5235-41.5873,1.1869-5.4769-5.3792-7.0539-12.9265-5.1256-20.9986,2.1377-8.9484,4.236-17.8529,7.378-26.5784,1.4885-4.1337,6.1841-9.833,2.8501-14.1625-1.223-1.5881-6.1199.0201-7.2538,1.6478-6.9329,9.9528-16.8452,15.9211-25.1348,24.1556-6.104,6.0633-11.1502,12.388-17.8511,18.0715-9.3677,7.9455-18.1822,15.6392-28.1962,22.7268-7.0521,4.9913-21.311,16.4924-28.2666,8.658-1.2495-1.4074-1.8089-5.9646.4978-6.9632,11.2489-4.8696,20.3819-9.8984,29.7681-17.6851,30.2313-25.0797,59.7056-50.5359,86.2729-79.5066,6.9915-7.624,7.9748-18.9248,12.3167-27.8272,16.0532-32.9148,32.296-64.484,55.2849-92.9464l35.6104-44.0889c2.3935-2.9634,6.1081-5.3489,8.9274-5.9684,3.508-.7708,9.8128.1083,10.8972,3.9005,4.5659,15.9667-3.1525,30.7955-10.2748,44.0638-3.8561,7.1836-5.8656,13.803-10.5369,21.0392l-14.4229,22.3419c-3.7136,5.7526-7.9854,9.71-11.9997,15.3445-3.7063,5.2022-9.0917,10.2929-13.6612,14.9473-4.5391,4.6234-8.0375,9.1991-12.3328,13.9331l-21.8569,24.0896c-5.8996,6.5022-14.0321,12.0211-17.3813,20.3664-5.2357,13.0455-7.9846,26.3532-12.4545,39.6164-2.723,8.0799-4.5152,16.3892-6.4396,24.6331-1.271,5.4451,2.7031,9.7669,7.8288,10.4445,7.1305.9425,14.0325-1.6499,19.4119-6.0173,12.7062-10.3158,10.2263,6.8791,33.3443-3.8612,8.1624-3.7921,32.6292-16.6621,39.5372-8.0745,6.9923,8.6923-3.1413,20.8293.2682,29.5774,24.5068-6.5334,60.5914-41.7302,81.055-10.4449,4.103,6.2728,9.4478,8.8957,16.7833,8.0069,12.463-1.5101,23.328-5.9413,35.1821-10.1941,25.8112-9.26,60.5351-15.7722,87.9169-12.3504,12.6153,1.5765,47.9788,9.1473,60.0912,12.8552,12.2649,3.7546,24.1303,7.9906,36.0019,12.8204l28.5355,11.6092c14.7886,6.0165,30.3257,11.8065,46.2429,13.0866,2.4805.1995,8.1886,2.1944,7.6003,4.381ZM566.6616,129.2813c-3.0273,2.3483-3.5079,8.9616-2.952,11.7126,6.2649.2881,7.861-4.8195,11.1316-8.3412,15.3258-16.5025,30.1958-32.5819,42.3801-51.6522,11.0726-17.3303,22.826-33.6823,27.5907-54.3479.548-2.377-6.6878-.8668-7.8855.9797-3.8397,5.9196-7.1325,11.2891-11.7571,16.4923-5.4343,6.1142-13.2635,11.4717-16.3156,19.3284-3.2045,8.249-9.754,12.9822-14.0248,19.9731l-17.5017,28.6484c-3.598,5.8895-4.2153,12.2034-10.6657,17.2069Z"/>
  <path d="M402.9108,301.7518c1.2073,3.3189-12.1911,13.7324-31.5632,2.333-9.9178-5.8361-16.7804-14.8219-17.1737-27.0162l-.41-12.7121c-10.0274-1.9595-7.6297,12.5929-17.7048,10.7354-4.2274-.7794-7.829-3.9971-7.7904-9.123.0389-5.1715,1.8562-10.1266,3.3196-15.4844,3.3827-12.3847,8.3418-17.3176,7.1038-21.3608-.2604-.8505-2.8841-.8986-3.5425-.2823-12.658,11.8492-25.6298,23.0284-40.3374,31.9621-2.468,1.4991-7.1533-.4078-8.7874-1.8959-1.7597-1.6024-2.3697-6.3082.7633-8.0428,10.3392-5.7243,19.1129-12.2801,28.0494-20.0425l21.8852-19.0098c11.1933-9.7227,18.4255-20.2235,23.4932-34.1887,4.0041-11.034,9.2434-21.5808,14.5526-32.4355,12.8225-26.2155,29.3286-50.1756,47.0895-73.3443,5.2993-6.9128,11.6731-12.3074,17.6357-18.4469,2.734-2.815,7.9991-3.7403,11.2829-2.493,12.9962,4.9363,2.4673,31.2266-.4326,39.1548-7.0269,19.2111-19.2847,35.749-31.2167,51.8031-11.8632,15.9617-11.8117,17.199-27.3274,31.9086-3.1194,2.9574-5.3409,7.312-8.4267,10.5541-7.0328,7.389-16.6871,13.0609-21.2995,22.4618-4.318,8.8009-7.3148,18.7684-12.1848,27.0453-.575.9772-.5283,4.5342.4989,4.9054,3.2329,1.1683,7.035-3.4545,10.3916-1.9668,1.3557.6008,3.6192,3.6846,3.7255,5.3185l2.0097,30.8794c.2362,3.6299,2.3677,7.913,3.5062,11.2777,7.0656,20.8806,30.38,10.6057,32.8899,17.5058ZM389.1866,159.9083c27.0998-33.8816,38.3527-45.6754,54.7208-89.051-5.2669-2.2306-8.1296,2.7259-11.1828,5.6592-12.0707,11.5966-19.6859,25.1532-27.8258,39.3434-5.9567,10.3843-12.2562,19.763-17.1665,30.8117-2.8739,6.4666-7.5324,11.997-8.5927,19.2195,4.9951.6871,7.3695-2.6352,10.047-5.9828Z"/>
</svg>