<?xml version="1.0" encoding="UTF-8"?>
<svg id="icon" xmlns="http://www.w3.org/2000/svg" version="1.1" viewBox="0 0 127.758 139.553">
  <!-- Generator: Adobe Illustrator 30.2.1, SVG Export Plug-In . SVG Version: 2.1.1 Build 1)  -->
  <path d="M64.3224,139.553C34.8128,131.2003,11.7701,110.1826.1372,82.0988L0,8.6404c42.1108-11.4441,85.3467-11.6006,127.6814.0119l.0766,72.9038c-11.3857,28.064-33.556,48.8461-63.4356,57.9969ZM64.373,134.9394c27.5795-8.8877,48.2091-28.3722,58.9485-54.22l-.158-68.742C83.7988,1.8556,43.6361,1.9497,4.4508,12.0193l.1065,69.1919c11.0312,26.1797,32.3254,45.6334,59.8156,53.7281Z" fill="#19365a"/>
  <path d="M99.1859,104.1624c-.0089,3.9602-4.3474,6.4193-6.908,7.8748l-.4166-74.1504c-.012-2.1348-6.9064-1.9823-8.4811-1.6993l-.2265,81.2607c-.0085,3.0544-4.6115,4.4886-7.0286,4.8756l-.0733-94.3989c14.0495,1.2567,27.2029,3.1906,40.633,7.0623l-.0069,44.4338c-1.6448,4.9401-3.6683,9.4044-7.0308,13.0981l-.2864-51.4312c-3.2344-2.1411-6.668-2.463-10.0277-2.241l-.147,65.3154Z" fill="#19365a"/>
  <path d="M35.1901,111.2401c-2.5796-.4427-6.7501-3.3811-6.7642-6.7138l-.2772-65.7057c-1.7026.0298-9.2541.0012-9.2925,2.4195l-.8184,51.5867c-2.304-3.9336-6.2675-8.3374-6.544-13.2967-.8292-14.8749-.2313-29.3659-.2489-44.5313,13.5745-4.0178,26.358-5.7671,40.4236-7.0485l-.0842,94.4813c-2.6067-.5686-6.9764-2.1426-6.9824-5.0582l-.1661-80.87c-1.0543-.7605-8.7399-.8012-8.755,1.4642l-.4907,73.2725Z" fill="#19365a"/>
  <path class="gold" d="M67.4229,124.8935c.0045,2.509-2.5711,2.6184-3.547,2.6617s-3.5992-.2344-3.5986-2.1166l.0351-106.7206c-15.799.2091-32.9977,3.0821-47.9534,6.6938-2.0636-.8482-1.6758-5.9132.1504-7.3077,34.0494-8.704,69.2303-8.7209,103.1275.0709,1.6604,2.4478,1.6378,5.1321.4671,7.7807-16.0988-4.9001-32.3513-6.5871-48.8735-7.2965l.1923,106.2343Z" fill="#ccaf6e"/>
</svg>